<?xml version="1.0" encoding="UTF-8"?>
<svg xmlns="http://www.w3.org/2000/svg" xmlns:xlink="http://www.w3.org/1999/xlink" width="100px" height="62px" viewBox="0 0 100 62" version="1.1">
<g id="surface1">
<path style=" stroke:none;fill-rule:evenodd;fill:rgb(49.411765%,10.980392%,81.176471%);fill-opacity:1;" d="M 34.773438 3.484375 C 35.484375 3.71875 36.226562 4.460938 36.4375 5.125 C 36.726562 6.046875 36.554688 6.632812 35.914062 6.9375 C 35.445312 7.164062 34.90625 7.757812 34.265625 8.757812 C 33.664062 9.6875 32.773438 11.359375 32.875 11.351562 C 33.054688 11.34375 33.3125 11 33.75 10.195312 C 34.789062 8.304688 35.570312 7.234375 36.109375 6.984375 C 36.65625 6.71875 36.90625 6.375 36.90625 5.882812 C 36.90625 4.65625 35.8125 3.445312 34.617188 3.34375 C 34.257812 3.3125 34.257812 3.3125 34.773438 3.484375 M 64.039062 7.710938 C 64.601562 7.890625 65.21875 8.382812 65.382812 8.789062 C 65.4375 8.921875 65.5 9.023438 65.523438 9 C 65.585938 8.9375 65.367188 8.578125 65.03125 8.226562 C 64.710938 7.890625 64.015625 7.539062 63.6875 7.546875 C 63.609375 7.546875 63.765625 7.625 64.039062 7.710938 M 50.789062 8.664062 C 51.476562 8.804688 51.96875 9.023438 52.34375 9.351562 C 52.6875 9.664062 52.929688 9.710938 52.65625 9.414062 C 52.257812 8.976562 51.101562 8.523438 50.46875 8.546875 C 50.34375 8.546875 50.492188 8.601562 50.789062 8.664062 M 55.828125 8.867188 C 56.382812 8.992188 57.039062 9.34375 57.265625 9.65625 C 57.507812 9.976562 57.789062 10.6875 57.789062 10.960938 C 57.789062 11.085938 57.820312 11.109375 57.875 11.054688 C 58 10.921875 57.679688 9.960938 57.382812 9.601562 C 57.078125 9.21875 56.414062 8.882812 55.875 8.828125 L 55.46875 8.789062 L 55.828125 8.867188 M 46.34375 9.320312 C 47.359375 9.5625 48.007812 10.03125 48.179688 10.648438 L 48.265625 10.984375 L 48.34375 10.75 C 48.554688 10.140625 47.507812 9.367188 46.328125 9.25 L 45.835938 9.203125 L 46.34375 9.320312 M 40.46875 9.53125 C 41.179688 9.632812 41.96875 10.03125 42.3125 10.46875 C 42.984375 11.304688 42.984375 11.695312 42.351562 13.054688 C 41.773438 14.289062 41.421875 15.210938 41.351562 15.632812 L 41.296875 15.953125 L 41.46875 15.75 C 41.554688 15.632812 41.632812 15.515625 41.632812 15.476562 C 41.640625 15.304688 42.273438 13.710938 42.632812 12.953125 C 43.242188 11.671875 43.242188 11.257812 42.609375 10.445312 C 42.15625 9.867188 41.414062 9.515625 40.578125 9.484375 L 39.960938 9.460938 L 40.46875 9.53125 M 36.273438 10.203125 C 36.960938 10.296875 37.53125 10.585938 37.898438 11.023438 C 38.179688 11.351562 38.289062 11.375 38.289062 11.109375 C 38.289062 10.90625 37.898438 10.5625 37.4375 10.351562 C 37.148438 10.21875 36.835938 10.164062 36.375 10.140625 L 35.71875 10.125 L 36.273438 10.203125 M 53.335938 12.703125 C 53.015625 13.03125 52.601562 13.507812 52.40625 13.757812 L 52.0625 14.210938 L 52.390625 14.273438 C 52.578125 14.304688 52.796875 14.367188 52.890625 14.414062 C 53.085938 14.523438 53.140625 14.53125 53.140625 14.429688 C 53.140625 14.335938 52.695312 14.171875 52.429688 14.171875 L 52.234375 14.171875 L 52.507812 13.789062 C 52.65625 13.578125 53.046875 13.109375 53.375 12.75 C 53.703125 12.390625 53.960938 12.101562 53.945312 12.101562 C 53.929688 12.101562 53.648438 12.375 53.335938 12.703125 M 66.046875 12.179688 C 65.976562 12.21875 66.070312 12.234375 66.304688 12.203125 C 66.828125 12.148438 67.085938 12.234375 67.414062 12.585938 C 67.601562 12.78125 67.65625 12.8125 67.578125 12.679688 C 67.351562 12.328125 66.945312 12.101562 66.53125 12.101562 C 66.328125 12.101562 66.109375 12.140625 66.046875 12.179688 M 31.976562 16.757812 C 31.171875 18.21875 30.757812 19.398438 30.5 20.921875 C 30.421875 21.382812 30.3125 21.851562 30.242188 21.984375 C 30.109375 22.242188 30.125 22.25 30.398438 22.125 C 30.640625 22.015625 30.710938 21.789062 30.984375 20.375 C 31.210938 19.234375 31.46875 18.40625 31.890625 17.570312 C 32.15625 17.023438 32.375 16.34375 32.304688 16.273438 C 32.28125 16.25 32.140625 16.46875 31.976562 16.757812 M 45.28125 19.390625 C 45.023438 19.789062 45.015625 19.8125 45.226562 19.8125 C 45.320312 19.8125 45.390625 19.765625 45.382812 19.703125 C 45.367188 19.648438 45.40625 19.492188 45.460938 19.367188 C 45.609375 19.007812 45.523438 19.015625 45.28125 19.390625 M 50.039062 20.28125 C 49.914062 21.140625 49.890625 23.070312 49.992188 24.242188 C 50.054688 25.0625 50.054688 25.078125 49.835938 25.40625 L 49.617188 25.734375 L 49.828125 25.539062 C 49.945312 25.429688 50.09375 25.179688 50.171875 24.984375 C 50.28125 24.679688 50.289062 24.546875 50.210938 24.101562 C 50.09375 23.414062 50.09375 21.28125 50.210938 20.398438 C 50.273438 19.945312 50.273438 19.6875 50.21875 19.632812 C 50.171875 19.578125 50.109375 19.796875 50.039062 20.28125 M 19.898438 23.78125 C 19.789062 23.820312 19.953125 23.90625 20.5 24.078125 C 21.226562 24.296875 21.304688 24.304688 22.367188 24.257812 C 22.976562 24.226562 23.625 24.164062 23.804688 24.125 C 24.0625 24.0625 24.007812 24.0625 23.5625 24.101562 C 22.414062 24.203125 21.5625 24.148438 20.875 23.921875 C 20.195312 23.695312 20.140625 23.6875 19.898438 23.78125 M 42.140625 23.984375 C 42.039062 24.085938 41.921875 24.296875 41.882812 24.4375 C 41.820312 24.65625 41.835938 24.703125 41.945312 24.695312 C 42.023438 24.695312 42.15625 24.65625 42.25 24.617188 C 42.390625 24.554688 42.390625 24.546875 42.265625 24.539062 C 42.148438 24.539062 42.132812 24.492188 42.179688 24.304688 C 42.203125 24.179688 42.265625 24.03125 42.3125 23.976562 C 42.460938 23.78125 42.320312 23.789062 42.140625 23.984375 M 68.726562 23.867188 C 70.515625 23.953125 71.34375 24.203125 72.398438 24.992188 C 72.90625 25.375 73.53125 26.15625 73.796875 26.734375 C 74.007812 27.195312 73.992188 27.742188 73.757812 28.210938 C 73.640625 28.4375 73.609375 28.554688 73.679688 28.5 C 73.914062 28.304688 74.109375 27.773438 74.109375 27.34375 C 74.109375 26.75 73.734375 26.054688 73.007812 25.320312 C 72.390625 24.695312 71.789062 24.328125 70.890625 24.03125 C 70.398438 23.875 70.109375 23.84375 68.890625 23.828125 L 67.460938 23.804688 L 68.726562 23.867188 M 30.382812 26.445312 C 29.835938 26.765625 29.203125 27.117188 28.984375 27.234375 C 28.757812 27.34375 28.578125 27.460938 28.578125 27.476562 C 28.578125 27.5 28.828125 27.390625 29.132812 27.234375 C 29.914062 26.835938 31.5625 25.859375 31.46875 25.859375 C 31.421875 25.859375 30.9375 26.125 30.382812 26.445312 M 46.6875 26.210938 C 46.632812 26.3125 46.367188 26.640625 46.09375 26.9375 L 45.601562 27.476562 L 46.109375 26.976562 C 46.671875 26.4375 47 26.023438 46.867188 26.023438 C 46.820312 26.023438 46.742188 26.109375 46.6875 26.210938 M 51.007812 31 C 51.679688 31.125 52.242188 31.46875 52.53125 31.929688 C 52.664062 32.140625 52.820312 32.320312 52.875 32.320312 C 53.25 32.335938 52.53125 31.453125 51.953125 31.171875 C 51.75 31.078125 51.359375 30.976562 51.078125 30.960938 L 50.570312 30.921875 L 51.007812 31 M 54.828125 32.328125 C 56.40625 32.625 57.21875 33.429688 57.21875 34.703125 C 57.21875 35.445312 56.867188 36.054688 56.179688 36.484375 C 56.03125 36.578125 55.921875 36.671875 55.945312 36.695312 C 56.015625 36.765625 56.679688 36.257812 57 35.898438 C 57.359375 35.492188 57.5 35.007812 57.429688 34.398438 C 57.289062 33.203125 56.304688 32.390625 54.851562 32.28125 L 54.40625 32.25 L 54.828125 32.328125 M 39.023438 34.148438 C 39.632812 34.335938 40.664062 34.484375 41.265625 34.46875 C 41.578125 34.460938 41.492188 34.4375 40.945312 34.382812 C 40.539062 34.34375 39.984375 34.25 39.71875 34.171875 C 39.453125 34.101562 39.0625 34.03125 38.859375 34.015625 C 38.507812 33.984375 38.507812 33.992188 39.023438 34.148438 M 64.648438 35.140625 C 66.015625 35.242188 66.632812 35.8125 67.015625 37.359375 C 67.484375 39.210938 67.234375 41.820312 66.398438 43.804688 C 66.25 44.171875 66.171875 44.398438 66.242188 44.3125 C 66.453125 44.023438 66.992188 42.507812 67.148438 41.773438 C 67.359375 40.78125 67.359375 38.070312 67.15625 37.320312 C 66.710938 35.6875 65.960938 35.039062 64.53125 35.078125 L 63.953125 35.085938 L 64.648438 35.140625 M 59.875 35.71875 C 60.539062 35.789062 61 35.945312 61.398438 36.234375 C 61.539062 36.335938 61.632812 36.359375 61.671875 36.304688 C 61.695312 36.257812 61.484375 36.109375 61.171875 35.953125 C 60.703125 35.734375 60.507812 35.6875 59.914062 35.671875 L 59.21875 35.65625 L 59.875 35.71875 M 51.265625 36.59375 C 50.789062 37.835938 50.085938 40.03125 50.164062 40.03125 C 50.265625 40.03125 50.59375 39.289062 50.929688 38.273438 C 51.148438 37.625 51.4375 36.804688 51.578125 36.445312 C 51.875 35.703125 51.875 35.726562 51.71875 35.726562 C 51.648438 35.726562 51.476562 36.054688 51.265625 36.59375 M 54.726562 36.96875 C 55.820312 37.109375 56.554688 37.703125 56.828125 38.65625 C 57 39.25 56.9375 40.320312 56.6875 41.109375 C 56.1875 42.710938 55.585938 43.609375 54.203125 44.84375 C 54.007812 45.015625 54.007812 45.015625 54.273438 44.835938 C 55.109375 44.273438 56.03125 43.171875 56.453125 42.242188 C 56.6875 41.726562 57.140625 39.742188 57.140625 39.25 C 57.140625 38.375 56.53125 37.382812 55.8125 37.09375 C 55.625 37.015625 55.171875 36.9375 54.8125 36.921875 L 54.164062 36.890625 L 54.726562 36.96875 M 45.1875 37.429688 C 44.78125 37.632812 44.109375 37.929688 43.695312 38.101562 C 43.28125 38.265625 42.953125 38.421875 42.976562 38.4375 C 43.015625 38.476562 44.546875 37.835938 45.46875 37.398438 C 45.851562 37.210938 46.109375 37.0625 46.039062 37.0625 C 45.976562 37.0625 45.585938 37.226562 45.1875 37.429688 M 62.851562 39.070312 C 62.476562 39.578125 61.789062 40.765625 61.789062 40.914062 C 61.789062 40.96875 61.859375 41 61.9375 40.976562 C 62.015625 40.953125 62.242188 40.976562 62.445312 41.023438 C 62.789062 41.101562 62.9375 41.085938 62.835938 40.984375 C 62.8125 40.960938 62.601562 40.921875 62.375 40.890625 C 62.140625 40.859375 61.953125 40.828125 61.953125 40.804688 C 61.953125 40.695312 62.421875 39.875 62.804688 39.296875 C 63.320312 38.53125 63.351562 38.398438 62.851562 39.070312 M 42.890625 39.171875 C 44.398438 39.476562 45.007812 40.273438 45.007812 41.898438 C 45.007812 43.148438 44.53125 44.546875 43.726562 45.65625 C 43.40625 46.09375 43.375 46.164062 43.5 46.203125 C 43.585938 46.234375 43.859375 46.382812 44.109375 46.539062 C 44.570312 46.8125 44.570312 46.820312 44.570312 46.625 C 44.570312 46.476562 44.484375 46.398438 44.140625 46.242188 L 43.703125 46.046875 L 44.070312 45.546875 C 44.265625 45.273438 44.515625 44.859375 44.625 44.632812 C 44.859375 44.117188 45.34375 41.28125 45.265625 40.867188 C 45.15625 40.257812 44.679688 39.632812 44.125 39.351562 C 43.796875 39.179688 43.09375 39.039062 42.671875 39.046875 C 42.359375 39.054688 42.382812 39.070312 42.890625 39.171875 M 60.671875 47.640625 C 60.726562 48.835938 60.960938 50.320312 61.226562 51.117188 C 61.429688 51.742188 61.390625 52.242188 61.117188 52.609375 C 60.96875 52.796875 60.96875 52.820312 61.09375 52.71875 C 61.296875 52.546875 61.539062 51.984375 61.546875 51.671875 C 61.546875 51.53125 61.476562 51.203125 61.390625 50.953125 C 61.171875 50.296875 60.914062 48.703125 60.84375 47.546875 C 60.8125 47 60.75 46.585938 60.703125 46.585938 C 60.65625 46.585938 60.640625 46.953125 60.671875 47.640625 M 49.710938 49.71875 C 49.710938 50.015625 49.65625 50.203125 49.5 50.4375 C 49.296875 50.75 49.296875 50.757812 49.476562 50.632812 C 49.765625 50.4375 49.960938 50.132812 50.007812 49.804688 C 50.054688 49.554688 50.03125 49.484375 49.890625 49.40625 C 49.71875 49.320312 49.710938 49.328125 49.710938 49.71875 M 45.445312 50.125 C 45.429688 50.15625 45.367188 50.335938 45.304688 50.523438 C 45.125 51.101562 44.617188 51.734375 43.921875 52.242188 C 43.796875 52.335938 43.859375 52.3125 44.078125 52.203125 C 44.921875 51.75 45.914062 50.414062 45.59375 50.148438 C 45.539062 50.101562 45.46875 50.085938 45.445312 50.125 "/>
<path style=" stroke:none;fill-rule:evenodd;fill:rgb(92.54902%,3.137255%,19.607843%);fill-opacity:1;" d="M 38.375 7.28125 C 38.375 7.585938 37.898438 8.195312 37.453125 8.445312 C 37.21875 8.585938 36.898438 8.828125 36.742188 8.992188 C 36.492188 9.25 36.484375 9.28125 36.632812 9.28125 C 36.726562 9.28125 36.851562 9.226562 36.90625 9.15625 C 36.96875 9.085938 37.125 8.976562 37.265625 8.921875 C 37.632812 8.757812 38.03125 8.390625 38.203125 8.046875 C 38.367188 7.726562 38.507812 7.125 38.421875 7.125 C 38.398438 7.125 38.375 7.195312 38.375 7.28125 M 69.132812 14.726562 C 69.132812 15.1875 67.546875 17.390625 66.328125 18.609375 C 65.304688 19.632812 64.265625 20.398438 63.15625 20.929688 C 62.132812 21.414062 61.515625 21.570312 60.523438 21.570312 C 59.179688 21.570312 58.148438 21.234375 57.273438 20.515625 L 56.835938 20.148438 L 56.640625 20.359375 C 56.03125 21.03125 54.609375 21.757812 53.65625 21.890625 C 53.007812 21.984375 52.242188 21.929688 51.8125 21.757812 C 51.710938 21.710938 51.671875 21.742188 51.671875 21.867188 C 51.671875 22.289062 53.453125 22.40625 54.445312 22.054688 C 55.132812 21.8125 55.945312 21.328125 56.476562 20.84375 L 56.898438 20.453125 L 57.257812 20.789062 C 57.695312 21.203125 58.40625 21.570312 59.101562 21.765625 C 59.882812 21.976562 61.171875 21.953125 61.992188 21.726562 C 63.453125 21.3125 65.226562 20.140625 66.617188 18.664062 C 67.421875 17.8125 68.601562 16.25 68.929688 15.578125 C 69.125 15.195312 69.28125 14.585938 69.1875 14.585938 C 69.15625 14.585938 69.132812 14.648438 69.132812 14.726562 M 35.070312 26.351562 C 33.570312 27.015625 32.320312 27.640625 31.5625 28.09375 C 29.65625 29.234375 27.367188 30.257812 25.835938 30.640625 C 25.054688 30.84375 24.789062 30.867188 23.5625 30.875 C 22.40625 30.875 22.101562 30.851562 21.726562 30.71875 C 20.9375 30.445312 20.507812 30.179688 19.890625 29.578125 C 19.554688 29.257812 19.28125 29.015625 19.28125 29.046875 C 19.28125 29.164062 19.757812 29.804688 20.0625 30.101562 C 20.492188 30.515625 21.414062 30.976562 22.140625 31.132812 C 22.914062 31.304688 24.640625 31.242188 25.640625 31.007812 C 27.171875 30.65625 29.46875 29.65625 31.328125 28.546875 C 32.148438 28.054688 34.296875 26.992188 35.3125 26.5625 C 35.976562 26.289062 36.03125 26.25 35.992188 26.078125 C 35.96875 25.976562 35.796875 26.023438 35.070312 26.351562 M 51.5625 26.3125 C 51.390625 26.75 50.875 27.257812 50.273438 27.578125 C 49.875 27.789062 49.765625 27.8125 48.914062 27.8125 L 47.992188 27.820312 L 47.6875 28.15625 C 47.007812 28.914062 45.679688 29.890625 44.757812 30.304688 C 43.5 30.875 41.429688 31.15625 40.3125 30.921875 C 39.578125 30.765625 38.804688 30.328125 38.09375 29.65625 C 37.59375 29.195312 37.476562 29.117188 37.601562 29.320312 C 38 30.015625 38.9375 30.773438 39.804688 31.101562 C 40.226562 31.265625 40.445312 31.289062 41.476562 31.289062 C 42.882812 31.28125 43.695312 31.109375 44.890625 30.539062 C 45.835938 30.085938 46.546875 29.578125 47.375 28.765625 L 48.007812 28.140625 L 48.882812 28.140625 C 49.65625 28.140625 49.804688 28.117188 50.21875 27.921875 C 50.476562 27.796875 50.84375 27.546875 51.046875 27.359375 C 51.398438 27.023438 51.789062 26.296875 51.742188 26.0625 C 51.726562 25.992188 51.648438 26.109375 51.5625 26.3125 M 75.476562 29.09375 C 75.007812 30.429688 73.585938 31.109375 72.078125 30.71875 C 71.570312 30.585938 71.351562 30.492188 69.992188 29.78125 C 69.273438 29.40625 68.578125 29.179688 67.460938 28.953125 C 66.328125 28.71875 63.070312 28.75 61.460938 29 C 60.148438 29.210938 58.835938 29.5 58.039062 29.773438 C 56.976562 30.132812 56.109375 29.96875 55.328125 29.265625 C 54.875 28.859375 54.820312 28.929688 55.203125 29.4375 C 55.375 29.671875 55.640625 29.882812 55.945312 30.039062 C 56.59375 30.367188 57.242188 30.375 58.1875 30.0625 C 58.96875 29.804688 60.40625 29.5 61.828125 29.289062 C 63.21875 29.078125 66.335938 29.078125 67.421875 29.289062 C 68.46875 29.484375 69.757812 29.9375 70.445312 30.34375 C 71.460938 30.945312 72 31.117188 72.929688 31.117188 C 73.640625 31.125 73.796875 31.09375 74.15625 30.921875 C 74.898438 30.539062 75.46875 29.789062 75.617188 28.992188 C 75.648438 28.820312 75.65625 28.679688 75.648438 28.679688 C 75.632812 28.679688 75.554688 28.867188 75.476562 29.09375 M 37.671875 39.164062 C 38.132812 39.929688 38.546875 40.304688 38.71875 40.125 C 38.796875 40.054688 38.757812 39.976562 38.53125 39.804688 C 38.375 39.679688 38.085938 39.429688 37.882812 39.25 C 37.546875 38.9375 37.53125 38.929688 37.671875 39.164062 M 68.523438 43.328125 C 68.429688 43.867188 67.84375 45.273438 67.476562 45.867188 C 66.359375 47.648438 64.53125 48.757812 62.914062 48.625 C 62.421875 48.585938 62.359375 48.59375 62.359375 48.734375 C 62.359375 49.007812 63.1875 49.070312 64.054688 48.859375 C 65.804688 48.445312 67.34375 46.921875 68.140625 44.820312 C 68.46875 43.953125 68.695312 43.125 68.625 43.054688 C 68.601562 43.03125 68.554688 43.15625 68.523438 43.328125 M 54.875 51.0625 C 54.078125 51.421875 52.742188 51.5625 51.828125 51.390625 C 51.5 51.328125 51.382812 51.328125 51.359375 51.398438 C 51.28125 51.625 50.710938 52.164062 50.328125 52.367188 C 49.945312 52.578125 49.84375 52.59375 48.898438 52.59375 C 48.03125 52.59375 47.804688 52.5625 47.359375 52.398438 L 46.84375 52.203125 L 46.71875 52.398438 C 46.429688 52.835938 45.546875 53.609375 45 53.90625 C 44.046875 54.414062 43.34375 54.5625 41.921875 54.570312 C 40.054688 54.578125 39.132812 54.242188 37.929688 53.117188 C 37.59375 52.796875 37.3125 52.570312 37.3125 52.609375 C 37.3125 52.789062 38.09375 53.65625 38.515625 53.945312 C 39.640625 54.71875 40.289062 54.898438 41.921875 54.898438 C 43.273438 54.898438 43.90625 54.765625 44.859375 54.296875 C 45.585938 53.9375 46.242188 53.390625 46.617188 52.835938 L 46.867188 52.46875 L 47.171875 52.625 C 47.976562 53.039062 49.585938 53.078125 50.335938 52.695312 C 50.710938 52.5 51.28125 51.960938 51.359375 51.734375 C 51.382812 51.664062 51.5 51.65625 51.828125 51.71875 C 52.757812 51.898438 53.976562 51.765625 54.914062 51.382812 C 55.21875 51.257812 55.34375 51.15625 55.34375 51.046875 C 55.34375 50.859375 55.320312 50.859375 54.875 51.0625 M 62.859375 53.429688 C 62.703125 53.875 62.039062 54.554688 61.484375 54.835938 C 61.046875 55.0625 60.953125 55.078125 60.03125 55.078125 L 59.046875 55.078125 L 58.359375 54.734375 C 57.945312 54.523438 57.453125 54.179688 57.117188 53.875 C 56.820312 53.59375 56.570312 53.398438 56.570312 53.4375 C 56.578125 53.664062 57.226562 54.351562 57.765625 54.710938 C 58.632812 55.28125 59.320312 55.484375 60.242188 55.429688 C 61.09375 55.382812 61.671875 55.148438 62.234375 54.625 C 62.617188 54.257812 63.046875 53.492188 63 53.25 C 62.984375 53.15625 62.929688 53.226562 62.859375 53.429688 "/>
<path style=" stroke:none;fill-rule:evenodd;fill:rgb(3.137255%,10.196078%,1.960784%);fill-opacity:1;" d="M 32.515625 2.523438 C 31.84375 2.71875 31.4375 2.96875 30.84375 3.546875 C 29.507812 4.859375 28.21875 7.46875 26.742188 11.851562 C 26.007812 14.046875 25.359375 16.296875 25.15625 17.359375 C 24.976562 18.328125 24.9375 19.765625 25.078125 20.390625 C 25.203125 20.945312 25.59375 21.71875 25.960938 22.148438 L 26.289062 22.523438 L 25.25 22.820312 C 23.34375 23.359375 22.070312 23.4375 20.90625 23.078125 C 19.65625 22.695312 18.929688 22.90625 18.320312 23.820312 C 17.945312 24.390625 17.867188 24.765625 17.914062 25.820312 C 17.976562 27.375 18.390625 28.179688 19.796875 29.5 C 20.609375 30.265625 21.0625 30.523438 21.953125 30.757812 C 23.039062 31.039062 24.867188 30.9375 26.296875 30.515625 C 27.742188 30.085938 29.765625 29.15625 31.570312 28.085938 C 32.351562 27.625 34.726562 26.460938 35.609375 26.109375 L 36.015625 25.945312 L 35.992188 26.109375 C 35.96875 26.242188 35.734375 26.390625 34.984375 26.726562 C 33.296875 27.484375 32.320312 27.96875 31.492188 28.460938 C 29.335938 29.75 26.664062 30.859375 25.070312 31.117188 C 23.445312 31.390625 21.835938 31.226562 20.929688 30.710938 C 20.726562 30.59375 20.546875 30.515625 20.523438 30.53125 C 20.507812 30.554688 20.71875 30.765625 21 31.007812 C 21.273438 31.257812 21.859375 31.796875 22.296875 32.210938 C 23.117188 32.992188 23.625 33.304688 24.453125 33.523438 C 25.984375 33.929688 28.023438 33.671875 30.21875 32.804688 C 31.28125 32.375 32.953125 31.546875 34.015625 30.90625 C 34.414062 30.664062 35.34375 30.179688 36.078125 29.828125 C 36.8125 29.476562 37.429688 29.164062 37.453125 29.140625 C 37.476562 29.117188 37.773438 29.359375 38.117188 29.679688 C 38.804688 30.328125 39.585938 30.765625 40.3125 30.921875 C 41.023438 31.070312 42.570312 30.976562 43.515625 30.726562 C 44.929688 30.351562 46.304688 29.53125 47.46875 28.367188 L 48.023438 27.8125 L 48.890625 27.8125 C 49.648438 27.8125 49.8125 27.78125 50.210938 27.59375 C 50.859375 27.28125 51.335938 26.820312 51.601562 26.234375 C 51.742188 25.9375 51.8125 25.835938 51.78125 25.984375 C 51.609375 26.84375 51.0625 27.515625 50.21875 27.921875 C 49.8125 28.117188 49.648438 28.140625 48.882812 28.148438 L 48.007812 28.15625 L 47.328125 28.8125 C 45.679688 30.421875 43.914062 31.210938 41.742188 31.304688 C 40.5625 31.359375 39.859375 31.21875 39.125 30.78125 L 38.65625 30.5 L 39.226562 31.046875 C 39.546875 31.34375 40.078125 31.867188 40.421875 32.203125 C 40.765625 32.539062 41.273438 32.960938 41.554688 33.148438 L 42.070312 33.484375 L 41.25 33.484375 C 40.640625 33.484375 40.226562 33.4375 39.648438 33.28125 C 38.65625 33.023438 38.203125 33.015625 37.671875 33.265625 C 36.757812 33.703125 36.335938 34.554688 36.335938 35.960938 C 36.335938 37.46875 36.882812 38.4375 38.492188 39.765625 L 38.8125 40.03125 L 38.429688 40.4375 C 37.140625 41.84375 36.273438 44.234375 36.492188 45.789062 C 36.5625 46.320312 36.554688 46.375 36.375 46.617188 C 35.921875 47.226562 35.703125 49.015625 35.960938 50.09375 C 36.210938 51.1875 36.5 51.671875 37.546875 52.71875 C 39.0625 54.25 39.851562 54.578125 41.921875 54.570312 C 43.34375 54.5625 44.046875 54.414062 45 53.90625 C 45.554688 53.609375 46.445312 52.820312 46.703125 52.398438 L 46.820312 52.203125 L 47.351562 52.398438 C 47.796875 52.5625 48.039062 52.59375 48.898438 52.59375 C 49.84375 52.59375 49.945312 52.578125 50.328125 52.367188 C 50.710938 52.164062 51.28125 51.625 51.359375 51.398438 C 51.382812 51.328125 51.507812 51.328125 51.875 51.398438 C 52.796875 51.578125 54.140625 51.390625 55.203125 50.9375 C 55.3125 50.890625 55.34375 50.914062 55.34375 51.039062 C 55.34375 51.164062 55.234375 51.25 54.914062 51.382812 C 53.9375 51.773438 52.617188 51.914062 51.757812 51.71875 C 51.484375 51.648438 51.382812 51.65625 51.359375 51.726562 C 51.28125 51.960938 50.71875 52.5 50.328125 52.703125 C 49.945312 52.90625 49.851562 52.921875 48.898438 52.921875 C 48.03125 52.921875 47.796875 52.890625 47.359375 52.726562 L 46.84375 52.53125 L 46.71875 52.726562 C 46.648438 52.835938 46.359375 53.148438 46.085938 53.421875 C 45.15625 54.34375 43.914062 54.835938 42.289062 54.929688 C 40.953125 55 39.851562 54.78125 39 54.257812 L 38.53125 53.96875 L 38.695312 54.203125 C 38.78125 54.328125 38.992188 54.539062 39.164062 54.671875 C 39.335938 54.796875 39.789062 55.210938 40.171875 55.585938 C 41.03125 56.421875 41.742188 56.890625 42.492188 57.132812 C 42.992188 57.289062 43.25 57.320312 44.453125 57.320312 C 45.679688 57.320312 45.90625 57.296875 46.445312 57.125 C 47.5 56.789062 47.984375 56.492188 48.757812 55.695312 L 49.46875 54.960938 L 49.828125 55.125 C 50.328125 55.351562 51.109375 55.445312 51.890625 55.375 C 52.6875 55.296875 53.289062 55 53.671875 54.484375 L 53.914062 54.148438 L 54.9375 54.1875 C 55.898438 54.226562 56.898438 54.117188 56.890625 53.976562 C 56.890625 53.945312 56.820312 53.828125 56.734375 53.710938 C 56.421875 53.304688 56.578125 53.375 57.117188 53.875 C 57.453125 54.179688 57.945312 54.523438 58.351562 54.726562 C 58.96875 55.039062 59.09375 55.078125 59.789062 55.109375 C 60.335938 55.132812 60.671875 55.101562 61.023438 55 C 61.875 54.742188 62.625 54.070312 62.929688 53.257812 C 63.125 52.742188 63.140625 52.835938 62.960938 53.484375 C 62.859375 53.867188 62.726562 54.09375 62.390625 54.453125 C 61.789062 55.117188 61.179688 55.390625 60.203125 55.4375 C 59.335938 55.476562 58.78125 55.34375 58.085938 54.914062 L 57.625 54.632812 L 57.796875 54.875 C 57.882812 55.007812 58.070312 55.195312 58.203125 55.289062 C 58.335938 55.382812 58.859375 55.851562 59.359375 56.328125 C 60.367188 57.28125 61.054688 57.6875 61.929688 57.859375 C 62.585938 57.984375 63.5 57.859375 64.101562 57.554688 C 64.953125 57.125 65.625 56.117188 65.625 55.28125 C 65.625 55.101562 65.554688 54.734375 65.46875 54.476562 C 65.289062 53.929688 65.070312 52.8125 64.984375 51.96875 L 64.921875 51.390625 L 65.625 51.390625 C 67.96875 51.390625 69.96875 49.578125 70.929688 46.585938 C 71.429688 45.039062 71.570312 42.140625 71.21875 40.78125 C 70.890625 39.523438 70.671875 39.203125 68.59375 36.960938 C 67.53125 35.820312 66.53125 34.796875 66.375 34.6875 C 65.8125 34.3125 65.398438 34.210938 64.445312 34.195312 C 63.421875 34.1875 62.820312 34.351562 61.984375 34.859375 L 61.507812 35.15625 L 60.984375 34.976562 C 60.695312 34.882812 60.21875 34.78125 59.921875 34.75 C 59.398438 34.703125 59.390625 34.703125 58.898438 34.15625 C 57.453125 32.554688 57.015625 32.148438 56.445312 31.867188 C 55.75 31.515625 54.945312 31.335938 54.070312 31.335938 C 53.5 31.328125 53.390625 31.304688 53.257812 31.15625 C 53.171875 31.054688 52.960938 30.875 52.789062 30.742188 L 52.476562 30.507812 L 52.898438 30.296875 C 53.65625 29.90625 54.03125 29.414062 54.34375 28.429688 C 54.367188 28.335938 54.445312 28.382812 54.640625 28.601562 C 55.046875 29.070312 55.78125 29.65625 56.125 29.804688 C 56.640625 30.03125 57.382812 29.984375 58.320312 29.6875 C 59.234375 29.398438 60.296875 29.171875 61.75 28.953125 C 63.15625 28.742188 66.429688 28.742188 67.460938 28.953125 C 68.5625 29.179688 69.429688 29.46875 70.117188 29.835938 C 71.625 30.664062 72.28125 30.875 73.15625 30.8125 C 73.585938 30.78125 73.851562 30.703125 74.257812 30.492188 C 74.867188 30.171875 75.171875 29.828125 75.46875 29.125 C 75.65625 28.671875 75.671875 28.664062 75.617188 28.96875 C 75.359375 30.640625 73.679688 31.554688 71.898438 31 C 71.570312 30.898438 70.890625 30.601562 70.398438 30.335938 C 68.679688 29.414062 67.40625 29.140625 64.765625 29.148438 C 62.359375 29.148438 60.1875 29.453125 58.09375 30.085938 C 57.148438 30.375 56.859375 30.390625 56.265625 30.179688 L 55.84375 30.03125 L 56.0625 30.296875 C 56.1875 30.4375 56.40625 30.648438 56.5625 30.757812 C 56.71875 30.867188 57.140625 31.257812 57.5 31.632812 C 58.625 32.78125 59.210938 32.945312 60.664062 32.5 C 63.609375 31.617188 67.320312 31.289062 69.828125 31.703125 C 71.015625 31.898438 71.835938 32.171875 72.945312 32.75 C 74.328125 33.476562 74.75 33.601562 75.65625 33.554688 C 76.203125 33.523438 76.445312 33.46875 76.765625 33.304688 C 77.257812 33.039062 77.703125 32.585938 77.953125 32.078125 C 78.171875 31.625 78.257812 30.742188 78.109375 30.289062 C 77.828125 29.367188 76.820312 28.125 73.992188 25.226562 C 72.882812 24.085938 72.703125 23.9375 72.070312 23.632812 C 70.890625 23.046875 70.304688 22.929688 68.585938 22.921875 C 67.773438 22.921875 67.125 22.898438 67.164062 22.875 C 67.195312 22.84375 67.453125 22.632812 67.75 22.398438 C 69.03125 21.375 70.9375 19.117188 71.515625 17.929688 C 71.71875 17.515625 71.765625 17.304688 71.765625 16.882812 C 71.765625 16.164062 71.554688 15.78125 70.585938 14.71875 C 69.953125 14.039062 69.789062 13.804688 69.789062 13.617188 C 69.789062 13.164062 69.609375 12.390625 69.40625 11.953125 C 69.273438 11.671875 68.867188 11.164062 68.25 10.5 C 67.726562 9.9375 66.882812 9.03125 66.382812 8.476562 C 65.34375 7.34375 64.929688 7.03125 64.132812 6.78125 C 63.367188 6.546875 62.257812 6.59375 61.398438 6.90625 C 60.609375 7.1875 59.570312 7.859375 58.765625 8.609375 L 58.117188 9.21875 L 57.71875 8.84375 C 57.5 8.640625 57.171875 8.390625 56.992188 8.296875 C 55.929688 7.742188 54.398438 7.734375 53.210938 8.265625 L 52.75 8.46875 L 52.4375 8.265625 C 51.851562 7.898438 51.414062 7.773438 50.59375 7.726562 C 49.859375 7.6875 49.773438 7.703125 49.351562 7.90625 C 48.929688 8.117188 48.609375 8.414062 48.320312 8.867188 L 48.195312 9.0625 L 47.914062 8.890625 C 46.445312 7.976562 44.242188 8.28125 43.390625 9.53125 L 43.164062 9.867188 L 42.804688 9.523438 C 42.421875 9.164062 41.625 8.757812 41.140625 8.664062 C 40.898438 8.617188 40.828125 8.554688 40.742188 8.304688 C 40.554688 7.757812 40.257812 7.382812 38.390625 5.367188 C 36.4375 3.257812 36.070312 2.929688 35.351562 2.640625 C 34.765625 2.40625 33.164062 2.34375 32.515625 2.523438 M 34.773438 3.484375 C 35.484375 3.71875 36.226562 4.460938 36.4375 5.125 C 36.726562 6.046875 36.554688 6.632812 35.914062 6.9375 C 35.445312 7.164062 34.90625 7.757812 34.265625 8.757812 C 33.664062 9.6875 32.773438 11.359375 32.875 11.351562 C 33.054688 11.34375 33.3125 11 33.75 10.195312 C 34.789062 8.304688 35.570312 7.234375 36.109375 6.984375 C 36.65625 6.71875 36.90625 6.375 36.90625 5.882812 C 36.90625 4.65625 35.8125 3.445312 34.617188 3.34375 C 34.257812 3.3125 34.257812 3.3125 34.773438 3.484375 M 33.03125 4.21875 C 31.585938 4.601562 30.023438 7.390625 28.257812 12.765625 C 27.023438 16.507812 26.664062 18.039062 26.71875 19.3125 C 26.742188 19.992188 26.78125 20.164062 26.992188 20.546875 C 27.382812 21.28125 28.335938 21.796875 29.273438 21.796875 C 29.632812 21.796875 29.75 21.578125 29.882812 20.6875 C 30.21875 18.421875 31.421875 15.859375 32.898438 14.242188 C 33.789062 13.257812 34.539062 12.75 34.539062 13.125 C 34.539062 13.1875 34.390625 13.554688 34.21875 13.9375 C 33.796875 14.84375 33.375 16.15625 33.148438 17.242188 C 32.921875 18.320312 32.828125 20.335938 32.984375 20.726562 C 33.15625 21.140625 33.617188 21.328125 34.554688 21.367188 C 35.390625 21.40625 35.84375 21.328125 36.515625 21.039062 C 36.976562 20.835938 37 20.71875 36.664062 20.257812 C 36.171875 19.578125 36.015625 18.664062 36.164062 17.429688 C 36.296875 16.398438 36.546875 15.507812 37.132812 14.046875 C 37.546875 13.007812 37.59375 12.828125 37.59375 12.28125 C 37.59375 11.6875 37.59375 11.671875 37.296875 11.398438 C 36.5625 10.710938 35.21875 10.828125 33.953125 11.6875 C 33.273438 12.15625 31.523438 13.953125 30.90625 14.828125 C 30.632812 15.210938 30.351562 15.601562 30.273438 15.695312 C 30.023438 16.015625 31.257812 13.015625 32.085938 11.3125 C 33.53125 8.320312 34.65625 6.671875 35.539062 6.203125 C 35.914062 6.007812 35.960938 5.914062 35.851562 5.5 C 35.734375 5.078125 35.335938 4.59375 34.914062 4.375 C 34.546875 4.179688 33.492188 4.09375 33.03125 4.21875 M 37.53125 6.359375 C 37.460938 6.804688 37.039062 7.351562 36.578125 7.601562 C 36.09375 7.859375 35.921875 8.03125 35.421875 8.773438 L 35 9.390625 L 35.234375 9.335938 C 35.382812 9.296875 35.648438 9.085938 35.914062 8.78125 C 36.15625 8.507812 36.484375 8.226562 36.648438 8.15625 C 37.421875 7.828125 37.90625 6.867188 37.648438 6.179688 C 37.59375 6.046875 37.570312 6.085938 37.53125 6.359375 M 38.3125 7.382812 C 38.203125 7.804688 37.789062 8.289062 37.328125 8.53125 C 37.164062 8.617188 36.898438 8.820312 36.742188 8.984375 C 36.492188 9.25 36.484375 9.28125 36.632812 9.28125 C 36.726562 9.28125 36.84375 9.226562 36.898438 9.164062 C 36.953125 9.09375 37.164062 8.960938 37.359375 8.867188 C 37.984375 8.5625 38.539062 7.6875 38.4375 7.164062 C 38.421875 7.078125 38.375 7.179688 38.3125 7.382812 M 64.039062 7.710938 C 64.601562 7.890625 65.21875 8.382812 65.382812 8.789062 C 65.4375 8.921875 65.5 9.023438 65.523438 9 C 65.585938 8.9375 65.367188 8.578125 65.03125 8.226562 C 64.710938 7.890625 64.015625 7.539062 63.6875 7.546875 C 63.609375 7.546875 63.765625 7.625 64.039062 7.710938 M 62.070312 8.539062 C 60.96875 8.898438 59.289062 10.335938 58.40625 11.6875 C 57.398438 13.21875 56.898438 14.578125 56.835938 15.921875 C 56.765625 17.429688 57.117188 18.203125 58.101562 18.679688 C 58.625 18.929688 58.695312 18.9375 59.671875 18.9375 C 60.640625 18.9375 60.71875 18.929688 61.3125 18.664062 C 62.078125 18.328125 63.203125 17.578125 63.90625 16.9375 C 65.132812 15.8125 66.726562 13.671875 66.671875 13.210938 C 66.65625 13.03125 66.59375 12.96875 66.453125 12.945312 C 66.304688 12.921875 66.109375 13.078125 65.554688 13.65625 C 64.023438 15.265625 61.960938 16.492188 60.8125 16.492188 C 60.078125 16.492188 59.632812 16.078125 59.6875 15.445312 L 59.710938 15.15625 L 60.585938 14.867188 C 62.304688 14.304688 63.476562 13.226562 64.304688 11.460938 C 64.554688 10.914062 64.601562 10.726562 64.625 10.117188 C 64.664062 9.203125 64.53125 8.921875 63.914062 8.601562 C 63.382812 8.320312 62.804688 8.304688 62.070312 8.539062 M 50.789062 8.664062 C 51.476562 8.804688 51.96875 9.023438 52.34375 9.351562 C 52.6875 9.664062 52.929688 9.710938 52.65625 9.414062 C 52.257812 8.976562 51.101562 8.523438 50.46875 8.546875 C 50.34375 8.546875 50.492188 8.601562 50.789062 8.664062 M 55.828125 8.867188 C 56.382812 8.992188 57.039062 9.34375 57.265625 9.65625 C 57.507812 9.976562 57.789062 10.6875 57.789062 10.960938 C 57.789062 11.085938 57.820312 11.109375 57.875 11.054688 C 58 10.921875 57.679688 9.960938 57.382812 9.601562 C 57.078125 9.21875 56.414062 8.882812 55.875 8.828125 L 55.46875 8.789062 L 55.828125 8.867188 M 46.34375 9.320312 C 47.359375 9.5625 48.007812 10.03125 48.179688 10.648438 L 48.265625 10.984375 L 48.34375 10.75 C 48.554688 10.140625 47.507812 9.367188 46.328125 9.25 L 45.835938 9.203125 L 46.34375 9.320312 M 40.46875 9.53125 C 41.179688 9.632812 41.96875 10.03125 42.3125 10.46875 C 42.984375 11.304688 42.984375 11.695312 42.351562 13.054688 C 41.773438 14.289062 41.421875 15.210938 41.351562 15.632812 L 41.296875 15.953125 L 41.46875 15.75 C 41.554688 15.632812 41.632812 15.515625 41.632812 15.476562 C 41.640625 15.304688 42.273438 13.710938 42.632812 12.953125 C 43.242188 11.671875 43.242188 11.257812 42.609375 10.445312 C 42.15625 9.867188 41.414062 9.515625 40.578125 9.484375 L 39.960938 9.460938 L 40.46875 9.53125 M 49.921875 9.664062 C 49.65625 9.953125 48.882812 11.570312 48.367188 12.890625 C 47.460938 15.25 46.507812 18.46875 46.203125 20.210938 C 46.117188 20.703125 46.070312 20.804688 45.96875 20.757812 C 45.421875 20.523438 44.898438 20.460938 44.09375 20.507812 L 43.242188 20.5625 L 43.71875 20.039062 C 45.453125 18.140625 47.429688 13.421875 47.429688 11.195312 C 47.429688 10.804688 47.398438 10.6875 47.234375 10.539062 C 46.664062 9.992188 45.195312 9.992188 44.8125 10.53125 C 44.71875 10.664062 44.601562 11.0625 44.53125 11.492188 C 44.429688 12.109375 44.3125 12.429688 43.804688 13.46875 C 42.867188 15.382812 41.46875 17.382812 40.984375 17.515625 C 40.585938 17.617188 40.382812 17.070312 40.5 16.15625 C 40.539062 15.835938 40.617188 15.414062 40.664062 15.226562 C 40.796875 14.726562 41.445312 13.0625 41.765625 12.414062 C 42.132812 11.671875 42.132812 11.367188 41.75 10.945312 C 41.242188 10.375 40.117188 10.085938 39.773438 10.429688 C 39.546875 10.664062 38.578125 12.632812 38.164062 13.71875 C 37.484375 15.492188 37.078125 17.4375 37.1875 18.453125 C 37.273438 19.242188 37.640625 19.9375 38.15625 20.257812 C 38.671875 20.585938 39.484375 20.65625 40.070312 20.429688 C 40.78125 20.148438 41.773438 19.046875 42.710938 17.46875 C 43.164062 16.703125 43.15625 16.84375 42.695312 17.9375 C 42.25 18.96875 41.765625 19.757812 41.304688 20.171875 C 40.828125 20.609375 40.742188 20.90625 41.0625 21.015625 C 41.203125 21.054688 41.171875 21.09375 40.84375 21.273438 C 39.992188 21.726562 39.53125 22.4375 39.617188 23.164062 C 39.640625 23.367188 39.71875 23.632812 39.796875 23.757812 C 39.953125 23.992188 40.734375 24.398438 40.960938 24.351562 C 41.039062 24.335938 41.15625 24.15625 41.242188 23.921875 C 41.484375 23.226562 42.007812 22.828125 43.203125 22.414062 C 43.851562 22.195312 45.1875 22 45.507812 22.078125 C 46.265625 22.273438 44.84375 24.15625 43.359375 24.9375 C 42.476562 25.40625 41.789062 25.554688 40.835938 25.5 C 39.898438 25.445312 39.460938 25.226562 39.195312 24.671875 C 38.992188 24.257812 38.984375 23.914062 39.140625 23.289062 C 39.328125 22.539062 39.4375 21.828125 39.382812 21.679688 C 39.210938 21.226562 37.960938 21.101562 36.320312 21.382812 C 34.296875 21.726562 32.28125 22.296875 29.460938 23.320312 C 25.25 24.84375 22.515625 25.335938 20.867188 24.859375 C 19.867188 24.570312 19.882812 24.570312 19.726562 24.875 C 19.53125 25.25 19.59375 26.242188 19.84375 26.820312 C 20.0625 27.34375 20.578125 27.867188 21.117188 28.117188 C 21.484375 28.289062 21.632812 28.304688 22.742188 28.296875 C 23.734375 28.296875 24.09375 28.257812 24.617188 28.109375 C 26.125 27.695312 27.765625 26.960938 29.726562 25.84375 C 31.601562 24.765625 34.234375 23.5625 35.476562 23.210938 C 36.078125 23.039062 37.453125 22.796875 37.8125 22.796875 L 38.023438 22.796875 L 37.851562 23.273438 C 37.601562 23.992188 37.609375 25.695312 37.867188 26.4375 C 38.203125 27.421875 38.890625 28.132812 39.71875 28.359375 C 40.523438 28.578125 42.40625 28.289062 43.375 27.796875 C 44.492188 27.226562 45.851562 26.023438 46.304688 25.203125 C 46.445312 24.953125 46.570312 24.734375 46.578125 24.71875 C 46.585938 24.703125 46.765625 24.8125 46.976562 24.960938 C 47.296875 25.1875 47.445312 25.242188 47.90625 25.265625 C 48.5 25.296875 48.804688 25.203125 49.085938 24.882812 C 49.226562 24.726562 49.234375 24.640625 49.140625 23.484375 C 49.007812 21.882812 49.117188 20.5 49.554688 18.289062 C 49.929688 16.414062 50.117188 15.859375 50.742188 14.734375 C 51.367188 13.617188 52.0625 12.679688 52.898438 11.84375 C 53.976562 10.765625 54.695312 10.507812 54.867188 11.132812 C 55.171875 12.304688 52.742188 17.914062 51.96875 17.804688 C 51.664062 17.757812 51.734375 17.476562 52.28125 16.539062 C 52.578125 16.039062 52.8125 15.546875 52.8125 15.4375 C 52.8125 15.234375 52.460938 15 52.140625 15 C 52.03125 15 51.71875 15.117188 51.445312 15.257812 C 50.859375 15.554688 50.523438 16.015625 50.328125 16.804688 C 50.085938 17.742188 50.375 18.609375 51.054688 19.015625 C 52.1875 19.6875 53.523438 19.351562 54.773438 18.070312 C 56.09375 16.726562 56.867188 14.734375 56.953125 12.445312 C 57.023438 10.609375 56.78125 10 55.851562 9.726562 C 54.898438 9.445312 53.65625 9.8125 52.6875 10.65625 L 52.257812 11.023438 L 52.265625 10.734375 C 52.28125 10.1875 51.453125 9.546875 50.617188 9.46875 C 50.164062 9.429688 50.117188 9.445312 49.921875 9.664062 M 36.273438 10.203125 C 36.960938 10.296875 37.53125 10.585938 37.898438 11.023438 C 38.179688 11.351562 38.289062 11.375 38.289062 11.109375 C 38.289062 10.90625 37.898438 10.5625 37.4375 10.351562 C 37.148438 10.21875 36.835938 10.164062 36.375 10.140625 L 35.71875 10.125 L 36.273438 10.203125 M 61.28125 10.546875 C 60.945312 10.867188 60.484375 11.585938 60.164062 12.273438 C 59.898438 12.835938 59.617188 13.820312 59.695312 13.898438 C 59.789062 13.992188 60.609375 13.289062 61.078125 12.710938 C 61.757812 11.859375 62.125 10.984375 62 10.484375 C 61.929688 10.1875 61.625 10.21875 61.28125 10.546875 M 53.335938 12.703125 C 53.015625 13.03125 52.601562 13.507812 52.40625 13.757812 L 52.0625 14.210938 L 52.390625 14.273438 C 52.578125 14.304688 52.796875 14.367188 52.890625 14.414062 C 53.085938 14.523438 53.140625 14.53125 53.140625 14.429688 C 53.140625 14.335938 52.695312 14.171875 52.429688 14.171875 L 52.234375 14.171875 L 52.507812 13.789062 C 52.65625 13.578125 53.046875 13.109375 53.375 12.75 C 53.703125 12.390625 53.960938 12.101562 53.945312 12.101562 C 53.929688 12.101562 53.648438 12.375 53.335938 12.703125 M 66.046875 12.179688 C 65.976562 12.21875 66.070312 12.234375 66.304688 12.203125 C 66.828125 12.148438 67.085938 12.234375 67.414062 12.585938 C 67.601562 12.78125 67.65625 12.8125 67.578125 12.679688 C 67.351562 12.328125 66.945312 12.101562 66.53125 12.101562 C 66.328125 12.101562 66.109375 12.140625 66.046875 12.179688 M 68.257812 13.945312 C 68.15625 14.335938 67.484375 15.398438 66.796875 16.265625 C 66.554688 16.578125 66.375 16.828125 66.398438 16.828125 C 66.46875 16.828125 67.632812 15.3125 67.976562 14.773438 C 68.15625 14.492188 68.328125 14.125 68.359375 13.960938 C 68.4375 13.539062 68.367188 13.53125 68.257812 13.945312 M 69.101562 14.820312 C 69.023438 15.148438 68.140625 16.507812 67.390625 17.460938 C 65.882812 19.359375 63.5625 21.015625 61.820312 21.4375 C 61.109375 21.609375 59.875 21.609375 59.179688 21.445312 C 58.421875 21.257812 57.984375 21.054688 57.367188 20.578125 L 56.828125 20.15625 L 56.632812 20.367188 C 56.53125 20.484375 56.234375 20.726562 55.96875 20.90625 C 54.820312 21.703125 53.617188 22.054688 52.570312 21.898438 C 52.234375 21.851562 51.890625 21.789062 51.8125 21.757812 C 51.710938 21.710938 51.671875 21.742188 51.671875 21.867188 C 51.671875 22.289062 53.453125 22.40625 54.445312 22.054688 C 55.125 21.820312 55.9375 21.335938 56.476562 20.84375 L 56.898438 20.460938 L 57.304688 20.835938 C 58.476562 21.90625 60.460938 22.234375 62.242188 21.664062 C 62.84375 21.46875 64.03125 20.851562 64.726562 20.359375 C 66.5 19.125 69.328125 15.578125 69.203125 14.742188 C 69.171875 14.570312 69.164062 14.578125 69.101562 14.820312 M 31.976562 16.757812 C 31.171875 18.21875 30.757812 19.398438 30.5 20.921875 C 30.421875 21.382812 30.3125 21.851562 30.242188 21.984375 C 30.109375 22.242188 30.125 22.25 30.398438 22.125 C 30.640625 22.015625 30.710938 21.789062 30.984375 20.375 C 31.210938 19.234375 31.46875 18.40625 31.890625 17.570312 C 32.15625 17.023438 32.375 16.34375 32.304688 16.273438 C 32.28125 16.25 32.140625 16.46875 31.976562 16.757812 M 45.28125 19.390625 C 45.023438 19.789062 45.015625 19.8125 45.226562 19.8125 C 45.320312 19.8125 45.390625 19.765625 45.382812 19.703125 C 45.367188 19.648438 45.40625 19.492188 45.460938 19.367188 C 45.609375 19.007812 45.523438 19.015625 45.28125 19.390625 M 50.039062 20.28125 C 49.914062 21.140625 49.890625 23.070312 49.992188 24.242188 C 50.054688 25.0625 50.054688 25.078125 49.835938 25.40625 L 49.617188 25.734375 L 49.828125 25.539062 C 49.945312 25.429688 50.09375 25.179688 50.171875 24.984375 C 50.28125 24.679688 50.289062 24.546875 50.210938 24.101562 C 50.09375 23.414062 50.09375 21.28125 50.210938 20.398438 C 50.273438 19.945312 50.273438 19.6875 50.21875 19.632812 C 50.171875 19.578125 50.109375 19.796875 50.039062 20.28125 M 50.796875 22.210938 C 50.789062 23.054688 50.820312 23.6875 50.898438 24.039062 L 51.015625 24.578125 L 50.96875 24.078125 C 50.9375 23.804688 50.890625 22.984375 50.859375 22.257812 L 50.804688 20.929688 L 50.796875 22.210938 M 59.273438 23.070312 C 59.21875 23.132812 58.960938 23.34375 58.695312 23.546875 C 58.421875 23.742188 58.21875 23.914062 58.226562 23.921875 C 58.25 23.953125 59.992188 23.710938 60.148438 23.65625 C 60.210938 23.632812 60.09375 23.492188 59.84375 23.289062 C 59.375 22.914062 59.390625 22.921875 59.273438 23.070312 M 19.898438 23.78125 C 19.789062 23.820312 19.953125 23.90625 20.5 24.078125 C 21.226562 24.296875 21.304688 24.304688 22.367188 24.257812 C 22.976562 24.226562 23.625 24.164062 23.804688 24.125 C 24.0625 24.0625 24.007812 24.0625 23.5625 24.101562 C 22.414062 24.203125 21.5625 24.148438 20.875 23.921875 C 20.195312 23.695312 20.140625 23.6875 19.898438 23.78125 M 42.140625 23.984375 C 42.039062 24.085938 41.921875 24.296875 41.882812 24.4375 C 41.820312 24.65625 41.835938 24.703125 41.945312 24.695312 C 42.023438 24.695312 42.15625 24.65625 42.25 24.617188 C 42.390625 24.554688 42.390625 24.546875 42.265625 24.539062 C 42.148438 24.539062 42.132812 24.492188 42.179688 24.304688 C 42.203125 24.179688 42.265625 24.03125 42.3125 23.976562 C 42.460938 23.78125 42.320312 23.789062 42.140625 23.984375 M 68.726562 23.867188 C 70.515625 23.953125 71.34375 24.203125 72.398438 24.992188 C 72.90625 25.375 73.53125 26.15625 73.796875 26.734375 C 74.007812 27.195312 73.992188 27.742188 73.757812 28.210938 C 73.640625 28.4375 73.609375 28.554688 73.679688 28.5 C 73.914062 28.304688 74.109375 27.773438 74.109375 27.34375 C 74.109375 26.75 73.734375 26.054688 73.007812 25.320312 C 72.390625 24.695312 71.789062 24.328125 70.890625 24.03125 C 70.398438 23.875 70.109375 23.84375 68.890625 23.828125 L 67.460938 23.804688 L 68.726562 23.867188 M 54.203125 25.023438 C 54.210938 25.5625 54.210938 25.570312 54.351562 25.367188 C 54.421875 25.257812 54.640625 25.070312 54.835938 24.945312 L 55.179688 24.726562 L 54.6875 24.601562 L 54.203125 24.476562 L 54.203125 25.023438 M 66.445312 24.75 C 61.3125 25.179688 56.796875 25.859375 55.914062 26.320312 C 55.617188 26.476562 55.523438 26.804688 55.679688 27.101562 C 55.835938 27.382812 56.257812 27.414062 56.921875 27.195312 C 59.78125 26.234375 64.554688 25.914062 67.335938 26.492188 C 68.242188 26.679688 69.34375 27.0625 69.992188 27.40625 C 71.242188 28.070312 71.476562 28.179688 71.8125 28.234375 C 72.53125 28.34375 73.132812 27.9375 73.132812 27.351562 C 73.132812 26.765625 72.117188 25.601562 71.21875 25.148438 C 70.148438 24.617188 69.09375 24.53125 66.445312 24.75 M 30.382812 26.445312 C 29.835938 26.765625 29.203125 27.117188 28.984375 27.234375 C 28.757812 27.34375 28.578125 27.460938 28.578125 27.476562 C 28.578125 27.5 28.828125 27.390625 29.132812 27.234375 C 29.914062 26.835938 31.5625 25.859375 31.46875 25.859375 C 31.421875 25.859375 30.9375 26.125 30.382812 26.445312 M 46.6875 26.210938 C 46.632812 26.3125 46.367188 26.640625 46.09375 26.9375 L 45.601562 27.476562 L 46.109375 26.976562 C 46.671875 26.4375 47 26.023438 46.867188 26.023438 C 46.820312 26.023438 46.742188 26.109375 46.6875 26.210938 M 51.007812 31 C 51.679688 31.125 52.242188 31.46875 52.53125 31.929688 C 52.664062 32.140625 52.820312 32.320312 52.875 32.320312 C 53.25 32.335938 52.53125 31.453125 51.953125 31.171875 C 51.75 31.078125 51.359375 30.976562 51.078125 30.960938 L 50.570312 30.921875 L 51.007812 31 M 49.632812 32.039062 C 48.992188 32.273438 48.679688 32.609375 48.28125 33.46875 C 48.054688 33.945312 47.960938 34.070312 47.8125 34.070312 C 47.71875 34.070312 47.226562 34.1875 46.734375 34.320312 C 46.242188 34.453125 45.210938 34.695312 44.453125 34.867188 C 43.125 35.15625 42.992188 35.171875 41.476562 35.179688 C 40.03125 35.1875 39.8125 35.164062 39.15625 34.984375 L 38.429688 34.78125 L 38.234375 35.007812 C 38.070312 35.203125 38.046875 35.320312 38.046875 35.875 C 38.046875 37.304688 38.835938 38.046875 40.351562 38.046875 C 41.507812 38.046875 42.648438 37.695312 44.859375 36.65625 C 45.890625 36.171875 47.40625 35.59375 47.46875 35.65625 C 47.484375 35.671875 47.367188 36.171875 47.21875 36.757812 C 46.484375 39.632812 45.554688 45.226562 45.554688 46.757812 C 45.554688 47.335938 45.71875 48.351562 45.875 48.78125 C 46.015625 49.148438 46.515625 49.640625 46.984375 49.867188 C 47.289062 50.015625 47.53125 50.0625 47.976562 50.0625 C 49.039062 50.0625 49.195312 49.820312 48.734375 48.921875 C 48.390625 48.265625 48.296875 47.539062 48.351562 46.085938 C 48.445312 43.859375 49.125 40.46875 50.03125 37.796875 C 50.5 36.398438 50.992188 35.148438 51.132812 35 C 51.1875 34.945312 51.53125 34.859375 51.898438 34.804688 C 53.242188 34.625 54.585938 34.992188 55.007812 35.664062 C 55.117188 35.835938 55.265625 35.976562 55.328125 35.976562 C 55.484375 35.976562 56.226562 35.421875 56.328125 35.226562 C 56.367188 35.140625 56.40625 34.867188 56.40625 34.625 C 56.40625 33.820312 55.898438 33.359375 54.78125 33.148438 C 54.289062 33.054688 53.023438 33.085938 52.367188 33.203125 C 52.125 33.25 52.117188 33.242188 52.117188 32.929688 C 52.117188 31.984375 50.929688 31.554688 49.632812 32.039062 M 54.828125 32.328125 C 56.40625 32.625 57.21875 33.429688 57.21875 34.703125 C 57.21875 35.445312 56.867188 36.054688 56.179688 36.484375 C 56.03125 36.578125 55.921875 36.671875 55.945312 36.695312 C 56.015625 36.765625 56.679688 36.257812 57 35.898438 C 57.359375 35.492188 57.5 35.007812 57.429688 34.398438 C 57.289062 33.203125 56.304688 32.390625 54.851562 32.28125 L 54.40625 32.25 L 54.828125 32.328125 M 39.023438 34.148438 C 39.632812 34.335938 40.664062 34.484375 41.265625 34.46875 C 41.578125 34.460938 41.492188 34.4375 40.945312 34.382812 C 40.539062 34.34375 39.984375 34.25 39.71875 34.171875 C 39.453125 34.101562 39.0625 34.03125 38.859375 34.015625 C 38.507812 33.984375 38.507812 33.992188 39.023438 34.148438 M 64.648438 35.140625 C 66.015625 35.242188 66.632812 35.8125 67.015625 37.359375 C 67.484375 39.210938 67.234375 41.820312 66.398438 43.804688 C 66.25 44.171875 66.171875 44.398438 66.242188 44.3125 C 66.453125 44.023438 66.992188 42.507812 67.148438 41.773438 C 67.359375 40.78125 67.359375 38.070312 67.15625 37.320312 C 66.710938 35.6875 65.960938 35.039062 64.53125 35.078125 L 63.953125 35.085938 L 64.648438 35.140625 M 59.875 35.71875 C 60.539062 35.789062 61 35.945312 61.398438 36.234375 C 61.539062 36.335938 61.632812 36.359375 61.671875 36.304688 C 61.695312 36.257812 61.484375 36.109375 61.171875 35.953125 C 60.703125 35.734375 60.507812 35.6875 59.914062 35.671875 L 59.21875 35.65625 L 59.875 35.71875 M 51.265625 36.59375 C 50.789062 37.835938 50.085938 40.03125 50.164062 40.03125 C 50.265625 40.03125 50.59375 39.289062 50.929688 38.273438 C 51.148438 37.625 51.4375 36.804688 51.578125 36.445312 C 51.875 35.703125 51.875 35.726562 51.71875 35.726562 C 51.648438 35.726562 51.476562 36.054688 51.265625 36.59375 M 63.671875 36.023438 C 63.0625 36.1875 62.539062 36.546875 61.914062 37.234375 C 61.398438 37.804688 61.382812 37.8125 61.382812 37.570312 C 61.382812 36.882812 59.828125 36.210938 59.101562 36.59375 C 58.898438 36.695312 58.820312 36.859375 58.5 37.859375 C 58.125 39.015625 57.867188 40.117188 57.539062 41.898438 C 57.359375 42.84375 57.335938 42.921875 56.960938 43.398438 C 56.234375 44.34375 54.84375 45.539062 53.96875 45.984375 C 53.625 46.148438 53.390625 46.210938 53.03125 46.210938 C 52.601562 46.210938 52.539062 46.1875 52.320312 45.945312 C 52.054688 45.632812 51.867188 45.070312 52.015625 45.015625 C 52.070312 45 52.4375 44.820312 52.828125 44.617188 C 53.671875 44.1875 54.578125 43.398438 55.070312 42.648438 C 55.773438 41.578125 56.242188 40.0625 56.132812 39.21875 C 56.0625 38.703125 55.804688 38.195312 55.523438 38.023438 C 54.554688 37.445312 53.304688 37.828125 52.078125 39.078125 C 50.28125 40.921875 49.132812 43.726562 49.25 46 C 49.3125 47.351562 49.75 48.210938 50.585938 48.625 C 51.015625 48.84375 51.140625 48.859375 51.914062 48.859375 C 52.539062 48.859375 52.890625 48.820312 53.203125 48.710938 C 54.148438 48.375 55.546875 47.234375 56.507812 46.015625 L 56.984375 45.398438 L 56.921875 46.46875 C 56.765625 48.953125 56.890625 50.78125 57.25 51.445312 C 57.460938 51.820312 58.09375 52.328125 58.523438 52.460938 C 58.914062 52.578125 59.507812 52.578125 59.804688 52.460938 C 60.429688 52.21875 60.609375 51.773438 60.359375 51.054688 C 60.296875 50.859375 60.15625 50.25 60.054688 49.695312 C 59.890625 48.8125 59.875 48.4375 59.875 46.375 C 59.882812 44.90625 59.921875 43.851562 59.984375 43.484375 C 60.476562 40.726562 62.828125 36.875 63.789062 37.25 C 64.453125 37.507812 63.820312 41.507812 62.765625 43.742188 C 62.421875 44.453125 62.195312 44.679688 61.992188 44.507812 C 61.84375 44.382812 61.890625 44.203125 62.296875 43.195312 C 62.640625 42.375 62.703125 41.976562 62.515625 41.84375 C 62.453125 41.804688 62.210938 41.78125 61.976562 41.796875 C 60.96875 41.875 60.179688 43.210938 60.40625 44.445312 C 60.601562 45.515625 61.257812 46.046875 62.359375 46.046875 C 62.898438 46.039062 63.039062 46.007812 63.476562 45.765625 C 64.40625 45.257812 65.1875 44.335938 65.65625 43.203125 C 66.632812 40.859375 66.570312 37.265625 65.539062 36.257812 C 65.179688 35.90625 64.445312 35.8125 63.671875 36.023438 M 54.726562 36.96875 C 55.820312 37.109375 56.554688 37.703125 56.828125 38.65625 C 57 39.25 56.9375 40.320312 56.6875 41.109375 C 56.1875 42.710938 55.585938 43.609375 54.203125 44.84375 C 54.007812 45.015625 54.007812 45.015625 54.273438 44.835938 C 55.109375 44.273438 56.03125 43.171875 56.453125 42.242188 C 56.6875 41.726562 57.140625 39.742188 57.140625 39.25 C 57.140625 38.375 56.53125 37.382812 55.8125 37.09375 C 55.625 37.015625 55.171875 36.9375 54.8125 36.921875 L 54.164062 36.890625 L 54.726562 36.96875 M 45.1875 37.429688 C 44.78125 37.632812 44.109375 37.929688 43.695312 38.101562 C 43.28125 38.265625 42.953125 38.421875 42.976562 38.4375 C 43.015625 38.476562 44.546875 37.835938 45.46875 37.398438 C 45.851562 37.210938 46.109375 37.0625 46.039062 37.0625 C 45.976562 37.0625 45.585938 37.226562 45.1875 37.429688 M 44.789062 38.570312 C 44.585938 38.65625 44.570312 38.6875 44.671875 38.773438 C 44.765625 38.851562 44.820312 38.851562 44.9375 38.765625 C 45.171875 38.585938 45.0625 38.453125 44.789062 38.570312 M 62.851562 39.070312 C 62.476562 39.578125 61.789062 40.765625 61.789062 40.914062 C 61.789062 40.96875 61.859375 41 61.9375 40.976562 C 62.015625 40.953125 62.242188 40.976562 62.445312 41.023438 C 62.789062 41.101562 62.9375 41.085938 62.835938 40.984375 C 62.8125 40.960938 62.601562 40.921875 62.375 40.890625 C 62.140625 40.859375 61.953125 40.828125 61.953125 40.804688 C 61.953125 40.695312 62.421875 39.875 62.804688 39.296875 C 63.320312 38.53125 63.351562 38.398438 62.851562 39.070312 M 42.890625 39.171875 C 44.398438 39.476562 45.007812 40.273438 45.007812 41.898438 C 45.007812 43.148438 44.53125 44.546875 43.726562 45.65625 C 43.40625 46.09375 43.375 46.164062 43.5 46.203125 C 43.585938 46.234375 43.859375 46.382812 44.109375 46.539062 C 44.570312 46.8125 44.570312 46.820312 44.570312 46.625 C 44.570312 46.476562 44.484375 46.398438 44.140625 46.242188 L 43.703125 46.046875 L 44.070312 45.546875 C 44.265625 45.273438 44.515625 44.859375 44.625 44.632812 C 44.859375 44.117188 45.34375 41.28125 45.265625 40.867188 C 45.15625 40.257812 44.679688 39.632812 44.125 39.351562 C 43.796875 39.179688 43.09375 39.039062 42.671875 39.046875 C 42.359375 39.054688 42.382812 39.070312 42.890625 39.171875 M 68.023438 40.078125 C 68.023438 40.4375 68.03125 40.578125 68.054688 40.382812 C 68.070312 40.1875 68.070312 39.890625 68.054688 39.71875 C 68.03125 39.554688 68.023438 39.710938 68.023438 40.078125 M 52.929688 40.140625 C 52.640625 40.492188 52.125 41.601562 51.96875 42.234375 C 51.898438 42.507812 51.820312 42.984375 51.789062 43.296875 C 51.734375 43.851562 51.734375 43.867188 51.890625 43.78125 C 52.296875 43.5625 53.226562 42.085938 53.46875 41.289062 C 53.828125 40.117188 53.515625 39.445312 52.929688 40.140625 M 41.632812 40.140625 C 40.976562 40.414062 40.515625 40.765625 39.828125 41.515625 C 38.515625 42.929688 37.828125 45.09375 38.359375 46.132812 C 38.78125 46.984375 39.242188 47.28125 40.34375 47.414062 C 41.84375 47.59375 43.039062 47.976562 43.140625 48.304688 C 43.21875 48.554688 43.03125 48.882812 42.75 49 C 42.359375 49.171875 41.210938 49.125 40.46875 48.914062 C 39.554688 48.65625 39.09375 48.390625 38.648438 47.867188 C 38.203125 47.351562 38.039062 47.3125 37.765625 47.6875 C 37.617188 47.890625 37.601562 48.039062 37.601562 48.84375 C 37.59375 49.695312 37.617188 49.820312 37.828125 50.289062 C 38.109375 50.898438 38.65625 51.453125 39.234375 51.71875 C 40.171875 52.140625 41.96875 52.117188 43.085938 51.664062 C 43.835938 51.359375 44.507812 50.6875 44.6875 50.0625 C 44.84375 49.539062 44.859375 48.679688 44.726562 48.226562 C 44.429688 47.21875 43.171875 46.59375 41.429688 46.585938 C 40.5 46.578125 40.226562 46.242188 40.234375 45.109375 C 40.25 44.328125 40.390625 43.632812 40.6875 42.976562 C 40.898438 42.5 41.351562 41.9375 41.515625 41.9375 C 41.695312 41.9375 41.796875 42.226562 41.796875 42.710938 C 41.796875 43.296875 41.609375 43.914062 41.210938 44.65625 C 40.835938 45.351562 40.78125 45.757812 41.039062 46.015625 C 41.546875 46.53125 42.820312 45.796875 43.507812 44.601562 C 44.195312 43.40625 44.5 41.90625 44.25 41 C 43.992188 40.0625 42.773438 39.664062 41.632812 40.140625 M 68.539062 43.234375 C 68.328125 44.117188 67.828125 45.320312 67.398438 45.976562 C 67.023438 46.546875 66.320312 47.304688 65.789062 47.710938 C 64.96875 48.335938 63.679688 48.726562 62.796875 48.625 C 62.40625 48.578125 62.359375 48.585938 62.359375 48.726562 C 62.359375 48.914062 62.570312 48.984375 63.179688 48.984375 C 64.882812 48.992188 66.765625 47.640625 67.773438 45.695312 C 68.109375 45.039062 68.601562 43.601562 68.6875 43 C 68.773438 42.414062 68.703125 42.523438 68.539062 43.234375 M 60.671875 47.640625 C 60.726562 48.835938 60.960938 50.320312 61.226562 51.117188 C 61.429688 51.742188 61.390625 52.242188 61.117188 52.609375 C 60.96875 52.796875 60.96875 52.820312 61.09375 52.71875 C 61.296875 52.546875 61.539062 51.984375 61.546875 51.671875 C 61.546875 51.53125 61.476562 51.203125 61.390625 50.953125 C 61.171875 50.296875 60.914062 48.703125 60.84375 47.546875 C 60.8125 47 60.75 46.585938 60.703125 46.585938 C 60.65625 46.585938 60.640625 46.953125 60.671875 47.640625 M 61.554688 48.007812 C 61.539062 48.421875 61.84375 50.164062 62.03125 50.765625 C 62.117188 51.039062 62.203125 51.34375 62.226562 51.429688 C 62.242188 51.523438 62.265625 51.4375 62.273438 51.25 C 62.273438 51.054688 62.210938 50.695312 62.117188 50.460938 C 61.976562 50.085938 61.710938 48.789062 61.601562 47.953125 C 61.570312 47.726562 61.570312 47.726562 61.554688 48.007812 M 49.710938 49.71875 C 49.710938 50.015625 49.65625 50.203125 49.5 50.4375 C 49.296875 50.75 49.296875 50.757812 49.476562 50.632812 C 49.765625 50.4375 49.960938 50.132812 50.007812 49.804688 C 50.054688 49.554688 50.03125 49.484375 49.890625 49.40625 C 49.71875 49.320312 49.710938 49.328125 49.710938 49.71875 M 45.445312 50.125 C 45.429688 50.15625 45.367188 50.335938 45.304688 50.523438 C 45.125 51.101562 44.617188 51.734375 43.921875 52.242188 C 43.796875 52.335938 43.859375 52.3125 44.078125 52.203125 C 44.921875 51.75 45.914062 50.414062 45.59375 50.148438 C 45.539062 50.101562 45.46875 50.085938 45.445312 50.125 "/>
<path style=" stroke:none;fill-rule:evenodd;fill:rgb(96.862745%,71.764706%,10.588235%);fill-opacity:1;" d="M 33.03125 4.21875 C 31.585938 4.601562 30.023438 7.390625 28.257812 12.765625 C 27.023438 16.507812 26.664062 18.039062 26.71875 19.3125 C 26.742188 19.992188 26.78125 20.164062 26.992188 20.546875 C 27.382812 21.28125 28.335938 21.796875 29.273438 21.796875 C 29.632812 21.796875 29.75 21.578125 29.882812 20.6875 C 30.21875 18.421875 31.421875 15.859375 32.898438 14.242188 C 33.789062 13.257812 34.539062 12.75 34.539062 13.125 C 34.539062 13.1875 34.390625 13.554688 34.21875 13.9375 C 33.796875 14.84375 33.375 16.15625 33.148438 17.242188 C 32.921875 18.320312 32.828125 20.335938 32.984375 20.726562 C 33.15625 21.140625 33.617188 21.328125 34.554688 21.367188 C 35.390625 21.40625 35.84375 21.328125 36.515625 21.039062 C 36.976562 20.835938 37 20.71875 36.664062 20.257812 C 36.171875 19.578125 36.015625 18.664062 36.164062 17.429688 C 36.296875 16.398438 36.546875 15.507812 37.132812 14.046875 C 37.546875 13.007812 37.59375 12.828125 37.59375 12.28125 C 37.59375 11.6875 37.59375 11.671875 37.296875 11.398438 C 36.5625 10.710938 35.21875 10.828125 33.953125 11.6875 C 33.273438 12.15625 31.523438 13.953125 30.90625 14.828125 C 30.632812 15.210938 30.351562 15.601562 30.273438 15.695312 C 30.078125 15.9375 31.164062 13.234375 31.828125 11.8125 C 32.757812 9.835938 33.65625 8.257812 34.453125 7.234375 C 34.882812 6.671875 35.132812 6.445312 35.664062 6.125 C 35.921875 5.96875 35.9375 5.9375 35.890625 5.65625 C 35.8125 5.21875 35.453125 4.726562 35 4.445312 C 34.664062 4.234375 34.515625 4.195312 33.9375 4.171875 C 33.570312 4.164062 33.164062 4.179688 33.03125 4.21875 M 37.53125 6.351562 C 37.460938 6.804688 37.039062 7.359375 36.578125 7.601562 C 36.09375 7.859375 35.921875 8.03125 35.421875 8.773438 L 35 9.390625 L 35.234375 9.335938 C 35.382812 9.296875 35.648438 9.078125 35.90625 8.78125 C 36.15625 8.507812 36.492188 8.226562 36.6875 8.140625 C 37.382812 7.828125 37.8125 7.03125 37.664062 6.34375 L 37.59375 6.007812 L 37.53125 6.351562 M 62.070312 8.539062 C 60.96875 8.898438 59.289062 10.335938 58.40625 11.6875 C 57.398438 13.21875 56.898438 14.578125 56.835938 15.921875 C 56.765625 17.429688 57.117188 18.203125 58.101562 18.679688 C 58.625 18.929688 58.695312 18.9375 59.671875 18.9375 C 60.640625 18.9375 60.71875 18.929688 61.3125 18.664062 C 62.078125 18.328125 63.203125 17.578125 63.90625 16.9375 C 65.132812 15.8125 66.726562 13.671875 66.671875 13.210938 C 66.65625 13.03125 66.59375 12.96875 66.453125 12.945312 C 66.304688 12.921875 66.109375 13.078125 65.554688 13.65625 C 64.023438 15.265625 61.960938 16.492188 60.8125 16.492188 C 60.078125 16.492188 59.632812 16.078125 59.6875 15.445312 L 59.710938 15.15625 L 60.585938 14.867188 C 62.304688 14.304688 63.476562 13.226562 64.304688 11.460938 C 64.554688 10.914062 64.601562 10.726562 64.625 10.117188 C 64.664062 9.203125 64.53125 8.921875 63.914062 8.601562 C 63.382812 8.320312 62.804688 8.304688 62.070312 8.539062 M 49.921875 9.664062 C 49.65625 9.953125 48.882812 11.570312 48.367188 12.890625 C 47.460938 15.25 46.507812 18.46875 46.203125 20.210938 C 46.117188 20.703125 46.070312 20.804688 45.96875 20.757812 C 45.421875 20.523438 44.898438 20.460938 44.09375 20.507812 L 43.242188 20.5625 L 43.71875 20.039062 C 45.453125 18.140625 47.429688 13.421875 47.429688 11.195312 C 47.429688 10.804688 47.398438 10.6875 47.234375 10.539062 C 46.664062 9.992188 45.195312 9.992188 44.8125 10.53125 C 44.71875 10.664062 44.601562 11.0625 44.53125 11.492188 C 44.429688 12.109375 44.3125 12.429688 43.804688 13.46875 C 42.867188 15.382812 41.46875 17.382812 40.984375 17.515625 C 40.585938 17.617188 40.382812 17.070312 40.5 16.15625 C 40.539062 15.835938 40.617188 15.414062 40.664062 15.226562 C 40.796875 14.726562 41.445312 13.0625 41.765625 12.414062 C 42.132812 11.671875 42.132812 11.367188 41.75 10.945312 C 41.242188 10.375 40.117188 10.085938 39.773438 10.429688 C 39.546875 10.664062 38.578125 12.632812 38.164062 13.71875 C 37.484375 15.492188 37.078125 17.4375 37.1875 18.453125 C 37.273438 19.242188 37.640625 19.9375 38.15625 20.257812 C 38.671875 20.585938 39.484375 20.65625 40.070312 20.429688 C 40.78125 20.148438 41.773438 19.046875 42.710938 17.46875 C 43.164062 16.703125 43.15625 16.84375 42.695312 17.9375 C 42.25 18.96875 41.765625 19.757812 41.304688 20.171875 C 40.828125 20.609375 40.742188 20.90625 41.0625 21.015625 C 41.203125 21.054688 41.171875 21.09375 40.84375 21.273438 C 39.992188 21.726562 39.53125 22.4375 39.617188 23.164062 C 39.640625 23.367188 39.71875 23.632812 39.796875 23.757812 C 39.953125 23.992188 40.734375 24.398438 40.960938 24.351562 C 41.039062 24.335938 41.15625 24.15625 41.242188 23.921875 C 41.484375 23.226562 42.007812 22.828125 43.203125 22.414062 C 43.851562 22.195312 45.1875 22 45.507812 22.078125 C 46.265625 22.273438 44.84375 24.15625 43.359375 24.9375 C 42.476562 25.40625 41.789062 25.554688 40.835938 25.5 C 39.898438 25.445312 39.460938 25.226562 39.195312 24.671875 C 38.992188 24.257812 38.984375 23.914062 39.140625 23.289062 C 39.328125 22.539062 39.4375 21.828125 39.382812 21.679688 C 39.210938 21.226562 37.960938 21.101562 36.320312 21.382812 C 34.296875 21.726562 32.28125 22.296875 29.460938 23.320312 C 25.25 24.84375 22.515625 25.335938 20.867188 24.859375 C 19.867188 24.570312 19.882812 24.570312 19.726562 24.875 C 19.53125 25.25 19.59375 26.242188 19.84375 26.820312 C 20.0625 27.34375 20.578125 27.867188 21.117188 28.117188 C 21.484375 28.289062 21.632812 28.304688 22.742188 28.296875 C 23.734375 28.296875 24.09375 28.257812 24.617188 28.109375 C 26.125 27.695312 27.765625 26.960938 29.726562 25.84375 C 31.601562 24.765625 34.234375 23.5625 35.476562 23.210938 C 36.078125 23.039062 37.453125 22.796875 37.8125 22.796875 L 38.023438 22.796875 L 37.851562 23.273438 C 37.601562 23.992188 37.609375 25.695312 37.867188 26.4375 C 38.203125 27.421875 38.890625 28.132812 39.71875 28.359375 C 40.523438 28.578125 42.40625 28.289062 43.375 27.796875 C 44.492188 27.226562 45.851562 26.023438 46.304688 25.203125 C 46.445312 24.953125 46.570312 24.734375 46.578125 24.71875 C 46.585938 24.703125 46.765625 24.8125 46.976562 24.960938 C 47.296875 25.1875 47.445312 25.242188 47.90625 25.265625 C 48.5 25.296875 48.804688 25.203125 49.085938 24.882812 C 49.226562 24.726562 49.234375 24.640625 49.140625 23.484375 C 49.007812 21.882812 49.117188 20.5 49.554688 18.289062 C 49.929688 16.414062 50.117188 15.859375 50.742188 14.734375 C 51.367188 13.617188 52.0625 12.679688 52.898438 11.84375 C 53.976562 10.765625 54.695312 10.507812 54.867188 11.132812 C 55.171875 12.304688 52.742188 17.914062 51.96875 17.804688 C 51.664062 17.757812 51.734375 17.476562 52.28125 16.539062 C 52.578125 16.039062 52.8125 15.546875 52.8125 15.4375 C 52.8125 15.234375 52.460938 15 52.140625 15 C 52.03125 15 51.71875 15.117188 51.445312 15.257812 C 50.859375 15.554688 50.523438 16.015625 50.328125 16.804688 C 50.085938 17.742188 50.375 18.609375 51.054688 19.015625 C 52.1875 19.6875 53.523438 19.351562 54.773438 18.070312 C 56.09375 16.726562 56.867188 14.734375 56.953125 12.445312 C 57.023438 10.609375 56.78125 10 55.851562 9.726562 C 54.898438 9.445312 53.65625 9.8125 52.6875 10.65625 L 52.257812 11.023438 L 52.265625 10.734375 C 52.28125 10.1875 51.453125 9.546875 50.617188 9.46875 C 50.164062 9.429688 50.117188 9.445312 49.921875 9.664062 M 61.28125 10.546875 C 60.945312 10.867188 60.484375 11.585938 60.164062 12.273438 C 59.898438 12.835938 59.617188 13.820312 59.695312 13.898438 C 59.789062 13.992188 60.609375 13.289062 61.078125 12.710938 C 61.757812 11.859375 62.125 10.984375 62 10.484375 C 61.929688 10.1875 61.625 10.21875 61.28125 10.546875 M 68.257812 13.9375 C 68.15625 14.335938 67.5 15.382812 66.78125 16.289062 C 66.53125 16.609375 66.390625 16.8125 66.476562 16.75 C 66.554688 16.679688 66.96875 16.15625 67.390625 15.59375 C 68.085938 14.640625 68.46875 13.914062 68.382812 13.671875 C 68.367188 13.625 68.3125 13.742188 68.257812 13.9375 M 50.820312 22.460938 C 50.828125 23.335938 50.875 24.101562 50.929688 24.242188 C 51.007812 24.460938 51.015625 24.429688 50.96875 24.039062 C 50.9375 23.789062 50.890625 22.984375 50.859375 22.257812 L 50.796875 20.929688 L 50.820312 22.460938 M 19.96875 22.851562 C 20.109375 22.867188 20.546875 22.984375 20.945312 23.101562 C 21.609375 23.289062 21.765625 23.304688 22.65625 23.265625 C 23.609375 23.226562 24.710938 23.0625 24.632812 22.984375 C 24.609375 22.960938 24.335938 22.984375 24.023438 23.039062 C 23.085938 23.179688 21.898438 23.148438 21.304688 22.960938 C 20.984375 22.859375 20.585938 22.796875 20.257812 22.804688 C 19.96875 22.8125 19.835938 22.835938 19.96875 22.851562 M 66.445312 24.75 C 61.3125 25.179688 56.796875 25.859375 55.914062 26.320312 C 55.617188 26.476562 55.523438 26.804688 55.679688 27.101562 C 55.835938 27.382812 56.257812 27.414062 56.921875 27.195312 C 59.78125 26.234375 64.554688 25.914062 67.335938 26.492188 C 68.242188 26.679688 69.34375 27.0625 69.992188 27.40625 C 71.242188 28.070312 71.476562 28.179688 71.8125 28.234375 C 72.53125 28.34375 73.132812 27.9375 73.132812 27.351562 C 73.132812 26.765625 72.117188 25.601562 71.21875 25.148438 C 70.148438 24.617188 69.09375 24.53125 66.445312 24.75 M 49.632812 32.039062 C 49 32.273438 48.710938 32.570312 48.296875 33.429688 L 48.007812 34.03125 L 47.453125 34.140625 C 47.148438 34.203125 46.59375 34.34375 46.226562 34.453125 C 45.859375 34.554688 44.992188 34.765625 44.3125 34.914062 C 43.148438 35.15625 42.953125 35.179688 41.429688 35.179688 C 39.945312 35.1875 39.742188 35.164062 39.109375 34.984375 L 38.429688 34.789062 L 38.234375 35.015625 C 38.070312 35.203125 38.046875 35.328125 38.046875 35.875 C 38.046875 37.304688 38.835938 38.046875 40.351562 38.046875 C 41.507812 38.046875 42.742188 37.664062 44.890625 36.640625 C 45.953125 36.132812 47.414062 35.59375 47.492188 35.671875 C 47.515625 35.703125 47.492188 35.820312 47.445312 35.953125 C 47.234375 36.484375 46.75 38.671875 46.414062 40.570312 C 45.539062 45.554688 45.429688 46.65625 45.671875 47.921875 C 45.828125 48.75 45.921875 48.976562 46.273438 49.351562 C 46.726562 49.835938 47.265625 50.0625 47.976562 50.0625 C 49.039062 50.0625 49.195312 49.820312 48.734375 48.921875 C 48.390625 48.265625 48.296875 47.539062 48.351562 46.085938 C 48.445312 43.859375 49.125 40.46875 50.03125 37.796875 C 50.5 36.398438 50.992188 35.148438 51.132812 35 C 51.1875 34.945312 51.53125 34.859375 51.898438 34.804688 C 53.242188 34.625 54.585938 34.992188 55.007812 35.664062 C 55.117188 35.835938 55.265625 35.976562 55.328125 35.976562 C 55.484375 35.976562 56.226562 35.421875 56.328125 35.226562 C 56.476562 34.9375 56.421875 34.195312 56.21875 33.898438 C 55.75 33.195312 54.21875 32.890625 52.601562 33.179688 L 52.023438 33.28125 L 52.109375 33.070312 C 52.226562 32.734375 51.914062 32.1875 51.484375 31.992188 C 51.007812 31.773438 50.296875 31.789062 49.632812 32.039062 M 63.671875 36.023438 C 63.0625 36.1875 62.539062 36.546875 61.914062 37.234375 C 61.398438 37.804688 61.382812 37.8125 61.382812 37.570312 C 61.382812 36.882812 59.828125 36.210938 59.101562 36.59375 C 58.898438 36.695312 58.820312 36.859375 58.5 37.859375 C 58.125 39.015625 57.867188 40.117188 57.539062 41.898438 C 57.359375 42.84375 57.335938 42.921875 56.960938 43.398438 C 56.234375 44.34375 54.84375 45.539062 53.96875 45.984375 C 53.625 46.148438 53.390625 46.210938 53.03125 46.210938 C 52.601562 46.210938 52.539062 46.1875 52.320312 45.945312 C 52.054688 45.632812 51.867188 45.070312 52.015625 45.015625 C 52.070312 45 52.4375 44.820312 52.828125 44.617188 C 54.125 43.960938 55.085938 42.898438 55.695312 41.445312 C 56.203125 40.226562 56.273438 39.25 55.914062 38.492188 C 55.5 37.625 54.109375 37.53125 52.984375 38.289062 C 50.859375 39.71875 49.109375 43.335938 49.25 46 C 49.3125 47.351562 49.75 48.210938 50.585938 48.625 C 51.015625 48.84375 51.140625 48.859375 51.914062 48.859375 C 52.539062 48.859375 52.890625 48.820312 53.203125 48.710938 C 54.148438 48.375 55.546875 47.234375 56.507812 46.015625 L 56.984375 45.398438 L 56.921875 46.46875 C 56.765625 48.953125 56.890625 50.78125 57.25 51.445312 C 57.460938 51.820312 58.09375 52.328125 58.523438 52.460938 C 58.914062 52.578125 59.507812 52.578125 59.804688 52.460938 C 60.429688 52.21875 60.609375 51.773438 60.359375 51.054688 C 60.296875 50.859375 60.15625 50.25 60.054688 49.695312 C 59.890625 48.8125 59.875 48.4375 59.875 46.375 C 59.882812 44.90625 59.921875 43.851562 59.984375 43.484375 C 60.476562 40.726562 62.828125 36.875 63.789062 37.25 C 64.453125 37.507812 63.820312 41.507812 62.765625 43.742188 C 62.421875 44.453125 62.195312 44.679688 61.992188 44.507812 C 61.84375 44.382812 61.890625 44.203125 62.296875 43.195312 C 62.640625 42.375 62.703125 41.976562 62.515625 41.84375 C 62.453125 41.804688 62.210938 41.78125 61.976562 41.796875 C 60.96875 41.875 60.179688 43.210938 60.40625 44.445312 C 60.601562 45.515625 61.257812 46.046875 62.359375 46.046875 C 62.898438 46.039062 63.039062 46.007812 63.476562 45.765625 C 64.40625 45.257812 65.1875 44.335938 65.65625 43.203125 C 66.632812 40.859375 66.570312 37.265625 65.539062 36.257812 C 65.179688 35.90625 64.445312 35.8125 63.671875 36.023438 M 44.789062 38.570312 C 44.585938 38.65625 44.570312 38.6875 44.671875 38.773438 C 44.765625 38.851562 44.820312 38.851562 44.9375 38.765625 C 45.171875 38.585938 45.0625 38.453125 44.789062 38.570312 M 68.015625 39.992188 C 68.023438 40.3125 68.03125 40.429688 68.054688 40.257812 C 68.070312 40.085938 68.070312 39.828125 68.054688 39.679688 C 68.03125 39.53125 68.015625 39.671875 68.015625 39.992188 M 52.929688 40.140625 C 52.640625 40.492188 52.125 41.601562 51.96875 42.234375 C 51.898438 42.507812 51.820312 42.984375 51.789062 43.296875 C 51.734375 43.851562 51.734375 43.867188 51.890625 43.78125 C 52.296875 43.5625 53.226562 42.085938 53.46875 41.289062 C 53.828125 40.117188 53.515625 39.445312 52.929688 40.140625 M 41.632812 40.140625 C 40.976562 40.414062 40.515625 40.765625 39.828125 41.515625 C 38.515625 42.929688 37.828125 45.09375 38.359375 46.132812 C 38.78125 46.984375 39.242188 47.28125 40.34375 47.414062 C 41.84375 47.59375 43.039062 47.976562 43.140625 48.304688 C 43.21875 48.554688 43.03125 48.882812 42.75 49 C 42.359375 49.171875 41.210938 49.125 40.46875 48.914062 C 39.554688 48.65625 39.09375 48.390625 38.648438 47.867188 C 38.203125 47.351562 38.039062 47.3125 37.765625 47.6875 C 37.617188 47.890625 37.601562 48.039062 37.601562 48.84375 C 37.59375 49.695312 37.617188 49.820312 37.828125 50.289062 C 38.109375 50.898438 38.65625 51.453125 39.234375 51.71875 C 40.171875 52.140625 41.96875 52.117188 43.085938 51.664062 C 43.835938 51.359375 44.507812 50.6875 44.6875 50.0625 C 44.84375 49.539062 44.859375 48.679688 44.726562 48.226562 C 44.429688 47.21875 43.171875 46.59375 41.429688 46.585938 C 40.835938 46.578125 40.59375 46.46875 40.375 46.085938 C 40.070312 45.546875 40.21875 44.015625 40.6875 42.976562 C 40.898438 42.5 41.351562 41.9375 41.515625 41.9375 C 41.695312 41.9375 41.796875 42.226562 41.796875 42.710938 C 41.796875 43.296875 41.609375 43.914062 41.210938 44.65625 C 40.835938 45.351562 40.78125 45.757812 41.039062 46.015625 C 41.546875 46.53125 42.820312 45.796875 43.507812 44.601562 C 44.195312 43.40625 44.5 41.90625 44.25 41 C 43.992188 40.0625 42.773438 39.664062 41.632812 40.140625 M 61.554688 48.007812 C 61.539062 48.421875 61.84375 50.164062 62.03125 50.765625 C 62.117188 51.039062 62.203125 51.34375 62.226562 51.429688 C 62.242188 51.523438 62.265625 51.460938 62.273438 51.289062 C 62.273438 51.117188 62.195312 50.710938 62.085938 50.375 C 61.921875 49.851562 61.6875 48.710938 61.601562 47.953125 C 61.570312 47.726562 61.570312 47.734375 61.554688 48.007812 "/>
</g>
</svg>
